<?xml version="1.0" standalone="no"?>
<!DOCTYPE svg PUBLIC "-//W3C//DTD SVG 20010904//EN"
 "http://www.w3.org/TR/2001/REC-SVG-20010904/DTD/svg10.dtd">
<svg version="1.0" xmlns="http://www.w3.org/2000/svg"
 width="700.000000pt" height="700.000000pt" viewBox="0 0 700.000000 700.000000"
 preserveAspectRatio="xMidYMid meet">
<metadata>
Created by potrace 1.14, written by Peter Selinger 2001-2017
</metadata>
<g transform="translate(0.000000,700.000000) scale(0.100000,-0.100000)"
fill="#000000" stroke="none">
<path d="M3259 6006 c-2 -2 -41 -7 -86 -10 -46 -4 -91 -9 -100 -10 -10 -2 -40
-7 -68 -10 -69 -9 -289 -54 -351 -72 -28 -8 -60 -16 -70 -18 -40 -8 -244 -81
-343 -123 -439 -183 -821 -475 -1074 -820 -226 -307 -353 -669 -358 -1022 -1
-74 2 -87 27 -128 18 -28 45 -54 69 -67 l40 -21 2555 0 c2503 0 2556 0 2594
19 23 12 51 38 68 65 30 46 30 46 25 166 -3 66 -8 130 -10 141 -3 12 -8 37
-11 55 -21 133 -90 323 -173 479 -202 384 -546 725 -988 980 -328 188 -767
336 -1115 375 -30 4 -66 9 -80 12 -29 6 -545 15 -551 9z m536 -259 c11 -2 45
-8 75 -11 61 -7 107 -15 130 -21 8 -2 31 -7 50 -10 191 -32 508 -141 705 -243
121 -63 354 -206 375 -231 3 -3 23 -19 45 -35 113 -83 262 -226 375 -361 212
-252 350 -553 385 -836 l5 -45 -2441 0 -2440 0 6 65 c3 36 8 73 10 81 2 8 7
29 9 45 3 17 15 65 26 108 143 545 648 1049 1310 1307 74 29 255 89 285 94 14
3 28 7 32 9 9 5 232 52 298 63 148 23 283 31 500 29 132 -2 249 -5 260 -8z"/>
<path d="M938 3322 l-108 -3 0 -227 0 -227 2665 0 c1466 0 2666 2 2666 5 1 3
2 103 3 224 1 144 -2 220 -9 222 -12 5 -5052 11 -5217 6z"/>
<path d="M942 2478 c-43 -11 -104 -74 -118 -120 -21 -68 -14 -474 10 -573 80
-330 340 -574 676 -634 48 -8 3912 -8 3975 1 159 21 328 110 456 238 78 79
130 157 175 262 52 122 64 211 65 464 0 202 -2 226 -19 261 -11 21 -31 48 -44
60 -57 54 37 51 -1725 49 l-1632 -1 -28 -21 c-39 -28 -63 -83 -75 -167 -25
-193 -36 -212 -125 -212 -75 0 -102 30 -126 141 -10 47 -29 99 -46 126 -122
192 -403 173 -501 -34 -23 -49 -28 -72 -29 -154 -3 -136 -23 -179 -97 -210
-58 -24 -117 -11 -168 36 l-41 39 -5 163 c-6 180 -14 207 -72 252 -18 13 -51
29 -73 34 -49 13 -387 12 -433 0z m329 -348 c1 -128 3 -142 35 -207 88 -182
307 -277 493 -213 117 39 185 100 242 215 30 61 33 79 38 182 6 118 13 136 52
126 20 -6 22 -11 39 -98 23 -112 87 -203 182 -259 62 -36 86 -41 193 -40 75 0
99 4 146 26 110 51 178 149 201 293 l14 80 1512 0 1513 0 -1 -167 c-2 -189
-13 -251 -62 -354 -40 -84 -167 -216 -243 -253 -155 -73 2 -68 -2145 -66
-1059 1 -1941 5 -1960 9 -197 43 -363 195 -426 391 -24 73 -27 96 -28 261 l-3
180 104 0 103 0 1 -106z"/>
</g>
</svg>
